<svg width="216" height="166" viewBox="0 0 216 166" fill="none" xmlns="http://www.w3.org/2000/svg">
<path d="M128.847 36.5C74.4472 45.3 47.1805 79.8334 40.3472 96C108.347 57.2001 171.014 64.1667 193.847 72.5C194.847 56.8334 183.247 27.7 128.847 36.5Z" fill="url(#paint0_linear_307_1748)"/>
<mask id="mask0_307_1748" style="mask-type:alpha" maskUnits="userSpaceOnUse" x="40" y="34" width="154" height="62">
<path d="M128.847 36.5C74.4472 45.3 47.1805 79.8334 40.3472 96C108.347 57.2001 171.014 64.1667 193.847 72.5C194.847 56.8334 183.247 27.7 128.847 36.5Z" fill="url(#paint1_linear_307_1748)"/>
</mask>
<g mask="url(#mask0_307_1748)">
<path d="M80.9999 47C132.2 32.6 181.667 62.6666 200 79.5L210 68L110.5 14.5C79.3333 31.3333 29.7999 61.4 80.9999 47Z" fill="url(#paint2_linear_307_1748)" fill-opacity="0.1"/>
</g>
<path fill-rule="evenodd" clip-rule="evenodd" d="M108.347 38C75.9959 38 46.7245 51.1866 25.6148 72.4781C23.0386 75.0764 18.7535 75.0469 16.3857 72.2575L1.42115 54.6292C-0.481578 52.3877 -0.489607 49.088 1.49319 46.9171C27.8255 18.0864 65.7242 0 107.847 0C149.97 0 187.869 18.0864 214.201 46.917C216.184 49.088 216.176 52.3876 214.273 54.6291L199.768 71.7162C197.411 74.4934 193.149 74.5365 190.568 71.9654C169.498 50.9751 140.438 38 108.347 38Z" fill="url(#paint3_linear_307_1748)"/>
<mask id="mask1_307_1748" style="mask-type:alpha" maskUnits="userSpaceOnUse" x="40" y="34" width="154" height="62">
<path d="M128.847 36.5C74.4472 45.3 47.1805 79.8334 40.3472 96C108.347 57.2001 171.014 64.1667 193.847 72.5C194.847 56.8334 183.247 27.7 128.847 36.5Z" fill="url(#paint4_linear_307_1748)"/>
</mask>
<g mask="url(#mask1_307_1748)">
<path d="M162.5 76.5C88.5 43.3 40.5 83.6667 32.5 110.5L140 117.5C174.5 116.167 236.5 109.7 162.5 76.5Z" fill="url(#paint5_linear_307_1748)" fill-opacity="0.1"/>
</g>
<path fill-rule="evenodd" clip-rule="evenodd" d="M108.347 101C91.1006 101 75.2606 107.022 62.8151 117.078C60.1213 119.255 56.1287 119.075 53.8873 116.435L40.9714 101.22C38.9335 98.8191 39.0861 95.2364 41.4536 93.1601C59.3157 77.4957 82.7225 68 108.347 68C133.682 68 156.849 77.282 174.632 92.6309C177.029 94.6997 177.197 98.3055 175.148 100.719L162.211 115.958C159.986 118.58 156.03 118.778 153.335 116.642C140.973 106.848 125.343 101 108.347 101Z" fill="url(#paint6_linear_307_1748)"/>
<circle cx="108.347" cy="143.5" r="22.5" fill="url(#paint7_linear_307_1748)"/>
<mask id="mask2_307_1748" style="mask-type:alpha" maskUnits="userSpaceOnUse" x="0" y="0" width="216" height="75">
<path fill-rule="evenodd" clip-rule="evenodd" d="M108.347 38C75.9959 38 46.7245 51.1866 25.6148 72.4781C23.0386 75.0764 18.7535 75.0469 16.3857 72.2575L1.42115 54.6292C-0.481578 52.3877 -0.489607 49.088 1.49319 46.9171C27.8255 18.0864 65.7242 0 107.847 0C149.97 0 187.869 18.0864 214.201 46.917C216.184 49.088 216.176 52.3876 214.273 54.6291L199.768 71.7162C197.411 74.4934 193.149 74.5365 190.568 71.9654C169.498 50.9751 140.438 38 108.347 38Z" fill="url(#paint8_linear_307_1748)"/>
</mask>
<g mask="url(#mask2_307_1748)">
<path d="M121.5 43C169.9 22.6 205 34.5 216.5 43L208.5 18.5L158 3L88.5 -9.5L9 18.5L-9.5 56L18.5 87.5L75.5 48C70.6667 54.8333 73.1 63.4 121.5 43Z" fill="url(#paint9_linear_307_1748)"/>
</g>
<mask id="mask3_307_1748" style="mask-type:alpha" maskUnits="userSpaceOnUse" x="39" y="68" width="138" height="51">
<path fill-rule="evenodd" clip-rule="evenodd" d="M108.347 101C91.1006 101 75.2606 107.022 62.8151 117.078C60.1213 119.255 56.1287 119.075 53.8873 116.435L40.9714 101.22C38.9335 98.8191 39.0861 95.2364 41.4536 93.1601C59.3157 77.4957 82.7225 68 108.347 68C133.682 68 156.849 77.282 174.632 92.6309C177.029 94.6997 177.197 98.3055 175.148 100.719L162.211 115.958C159.986 118.58 156.03 118.778 153.335 116.642C140.973 106.848 125.343 101 108.347 101Z" fill="url(#paint10_linear_307_1748)"/>
</mask>
<g mask="url(#mask3_307_1748)">
<path d="M83.9999 111C96.3999 73.8 136.167 68.8334 154.5 71L178.5 79L183.5 103.5L168.5 128.5L125.5 115L105.5 107C93.1666 123.833 71.5999 148.2 83.9999 111Z" fill="url(#paint11_linear_307_1748)"/>
</g>
<mask id="mask4_307_1748" style="mask-type:alpha" maskUnits="userSpaceOnUse" x="85" y="121" width="46" height="45">
<circle cx="108.347" cy="143.5" r="22.5" fill="url(#paint12_linear_307_1748)"/>
</mask>
<g mask="url(#mask4_307_1748)">
<path d="M122.5 168.5C84.4999 156.5 92.9999 128.5 102 116L82.5 119.5L64.5 150L107 181.5C128 182.167 160.5 180.5 122.5 168.5Z" fill="url(#paint13_linear_307_1748)"/>
</g>
<defs>
<linearGradient id="paint0_linear_307_1748" x1="-33.5" y1="85.5" x2="172.5" y2="50.5" gradientUnits="userSpaceOnUse">
<stop stop-color="#6DF1D4"/>
<stop offset="0.494792" stop-color="#30C5F8"/>
<stop offset="1" stop-color="#2A93B8"/>
</linearGradient>
<linearGradient id="paint1_linear_307_1748" x1="-33.5" y1="85.5" x2="172.5" y2="50.5" gradientUnits="userSpaceOnUse">
<stop stop-color="#6DF1D4"/>
<stop offset="0.494792" stop-color="#30C5F8"/>
<stop offset="1" stop-color="#2A93B8"/>
</linearGradient>
<linearGradient id="paint2_linear_307_1748" x1="202" y1="70" x2="78.5" y2="34" gradientUnits="userSpaceOnUse">
<stop stop-color="#170E32"/>
<stop offset="1" stop-color="#170E32" stop-opacity="0"/>
</linearGradient>
<linearGradient id="paint3_linear_307_1748" x1="1.60705e-06" y1="37.1946" x2="215.694" y2="37.1946" gradientUnits="userSpaceOnUse">
<stop stop-color="#6DF1D4"/>
<stop offset="0.541667" stop-color="#5CC7EB"/>
<stop offset="1" stop-color="#39A7CD"/>
</linearGradient>
<linearGradient id="paint4_linear_307_1748" x1="-33.5" y1="85.5" x2="172.5" y2="50.5" gradientUnits="userSpaceOnUse">
<stop stop-color="#6DF1D4"/>
<stop offset="0.494792" stop-color="#30C5F8"/>
<stop offset="1" stop-color="#2A93B8"/>
</linearGradient>
<linearGradient id="paint5_linear_307_1748" x1="29.5" y1="106" x2="131" y2="64" gradientUnits="userSpaceOnUse">
<stop stop-color="#170E32"/>
<stop offset="1" stop-color="#170E32" stop-opacity="0"/>
</linearGradient>
<linearGradient id="paint6_linear_307_1748" x1="16" y1="49.0001" x2="186.5" y2="116.5" gradientUnits="userSpaceOnUse">
<stop stop-color="#6DF1D4"/>
<stop offset="0.541667" stop-color="#5CC7EB"/>
<stop offset="1" stop-color="#39A7CD"/>
</linearGradient>
<linearGradient id="paint7_linear_307_1748" x1="62.5" y1="121" x2="138" y2="151.5" gradientUnits="userSpaceOnUse">
<stop stop-color="#6DF1D4"/>
<stop offset="0.541667" stop-color="#5CC7EB"/>
<stop offset="1" stop-color="#39A7CD"/>
</linearGradient>
<linearGradient id="paint8_linear_307_1748" x1="1.60705e-06" y1="37.1946" x2="215.694" y2="37.1946" gradientUnits="userSpaceOnUse">
<stop stop-color="#6DF1D4"/>
<stop offset="0.541667" stop-color="#5CC7EB"/>
<stop offset="1" stop-color="#39A7CD"/>
</linearGradient>
<linearGradient id="paint9_linear_307_1748" x1="-7" y1="5.00001" x2="257" y2="41.5" gradientUnits="userSpaceOnUse">
<stop stop-color="#6DF1D4"/>
<stop offset="0.541667" stop-color="#5CC7EB"/>
<stop offset="1" stop-color="#39A7CD"/>
</linearGradient>
<linearGradient id="paint10_linear_307_1748" x1="16" y1="49.0001" x2="186.5" y2="116.5" gradientUnits="userSpaceOnUse">
<stop stop-color="#6DF1D4"/>
<stop offset="0.541667" stop-color="#5CC7EB"/>
<stop offset="1" stop-color="#39A7CD"/>
</linearGradient>
<linearGradient id="paint11_linear_307_1748" x1="12.5" y1="131" x2="183.5" y2="100.552" gradientUnits="userSpaceOnUse">
<stop stop-color="#6DF1D4"/>
<stop offset="0.541667" stop-color="#5CC7EB"/>
<stop offset="1" stop-color="#39A7CD"/>
</linearGradient>
<linearGradient id="paint12_linear_307_1748" x1="62.5" y1="121" x2="138" y2="151.5" gradientUnits="userSpaceOnUse">
<stop stop-color="#6DF1D4"/>
<stop offset="0.541667" stop-color="#5CC7EB"/>
<stop offset="1" stop-color="#39A7CD"/>
</linearGradient>
<linearGradient id="paint13_linear_307_1748" x1="74" y1="122" x2="120.5" y2="167.5" gradientUnits="userSpaceOnUse">
<stop stop-color="#6DF1D4"/>
<stop offset="0.541667" stop-color="#5CC7EB"/>
<stop offset="1" stop-color="#39A7CD"/>
</linearGradient>
</defs>
</svg>
